# Blender v2.78 (sub 0) OBJ File: 'untitled.blend'
# www.blender.org
mtllib Door.mtl
o Frame_Cube.002
v -0.086131 -0.046832 0.612283
v -0.086131 2.598782 0.612283
v -0.086131 -0.046832 -0.619493
v -0.086131 2.598782 -0.619493
v 0.086131 -0.046832 0.612283
v 0.086131 2.598782 0.612283
v 0.086131 -0.046832 -0.619493
v 0.086131 2.598782 -0.619493
v -0.086131 2.503840 0.612283
v -0.086131 2.503840 -0.619493
v 0.086131 2.503840 -0.619493
v 0.086131 2.503840 0.612283
v -0.086131 -0.046832 0.519621
v -0.086131 2.598782 0.519621
v 0.086131 -0.046832 0.519621
v 0.086131 2.598782 0.519621
v 0.086131 2.503840 0.519621
v -0.086131 2.503840 0.519621
v -0.086131 2.598782 -0.520469
v 0.086131 -0.046832 -0.520469
v -0.086131 2.503840 -0.520469
v -0.086131 -0.046832 -0.520469
v 0.086131 2.598782 -0.520469
v 0.086131 2.503840 -0.520469
v -0.086131 -0.003962 -0.619493
v 0.086131 -0.003962 -0.619493
v 0.086131 -0.003962 0.612283
v -0.086131 -0.003962 0.612283
v -0.086131 -0.003962 0.519621
v 0.086131 -0.003962 0.519621
v 0.086131 -0.003962 -0.520469
v -0.086131 -0.003962 -0.520469
vn -1.0000 0.0000 0.0000
vn 0.0000 0.0000 -1.0000
vn 1.0000 0.0000 0.0000
vn 0.0000 0.0000 1.0000
vn 0.0000 -1.0000 0.0000
vn 0.0000 1.0000 0.0000
usemtl None
s off
f 21//1 19//1 4//1 10//1
f 10//2 4//2 8//2 11//2
f 17//3 16//3 6//3 12//3
f 12//4 6//4 2//4 9//4
f 13//5 15//5 5//5 1//5
f 16//6 14//6 2//6 6//6
f 27//4 12//4 9//4 28//4
f 30//3 17//3 12//3 27//3
f 25//2 10//2 11//2 26//2
f 32//1 21//1 10//1 25//1
f 28//1 9//1 18//1 29//1
f 23//6 19//6 14//6 16//6
f 22//5 20//5 15//5 13//5
f 24//3 23//3 16//3 17//3
f 9//1 2//1 14//1 18//1
f 11//3 8//3 23//3 24//3
f 3//5 7//5 20//5 22//5
f 8//6 4//6 19//6 23//6
f 26//3 11//3 24//3 31//3
f 31//4 24//4 21//4 32//4
f 18//1 14//1 19//1 21//1
f 13//1 29//1 32//1 22//1
f 7//3 26//3 31//3 20//3
f 20//3 31//3 30//3 15//3
f 1//1 28//1 29//1 13//1
f 22//1 32//1 25//1 3//1
f 3//2 25//2 26//2 7//2
f 15//3 30//3 27//3 5//3
f 5//4 27//4 28//4 1//4
f 24//5 17//5 18//5 21//5
f 29//2 18//2 17//2 30//2
f 29//6 30//6 31//6 32//6
o Wood_Cube.001
v -0.050000 0.000000 0.516943
v -0.050000 2.500000 0.516943
v -0.050000 0.000000 -0.516943
v -0.050000 2.500000 -0.516943
v 0.050000 0.000000 0.516943
v 0.050000 2.500000 0.516943
v 0.050000 0.000000 -0.516943
v 0.050000 2.500000 -0.516943
vn -1.0000 0.0000 0.0000
vn 0.0000 0.0000 -1.0000
vn 1.0000 0.0000 0.0000
vn 0.0000 0.0000 1.0000
vn 0.0000 -1.0000 0.0000
vn 0.0000 1.0000 0.0000
usemtl None
s off
f 33//7 34//7 36//7 35//7
f 35//8 36//8 40//8 39//8
f 39//9 40//9 38//9 37//9
f 37//10 38//10 34//10 33//10
f 35//11 39//11 37//11 33//11
f 40//12 36//12 34//12 38//12
o Knob_Cylinder
v 0.038582 1.249727 -0.409842
v 0.068089 1.249727 -0.383327
v 0.038582 1.239935 -0.408878
v 0.068089 1.245108 -0.382872
v 0.038582 1.230521 -0.406022
v 0.068089 1.240667 -0.381525
v 0.038582 1.221844 -0.401384
v 0.068089 1.236575 -0.379338
v 0.038582 1.214239 -0.395142
v 0.068089 1.232987 -0.376394
v 0.038582 1.207997 -0.387537
v 0.068089 1.230043 -0.372806
v 0.038582 1.203359 -0.378860
v 0.068089 1.227856 -0.368714
v 0.038582 1.200503 -0.369446
v 0.068089 1.226508 -0.364273
v 0.038582 1.199539 -0.359654
v 0.068089 1.226054 -0.359654
v 0.038582 1.200503 -0.349863
v 0.068089 1.226508 -0.355036
v 0.038582 1.203359 -0.340448
v 0.068089 1.227856 -0.350595
v 0.038582 1.207997 -0.331772
v 0.068089 1.230043 -0.346502
v 0.038582 1.214239 -0.324166
v 0.068089 1.232987 -0.342915
v 0.038582 1.221844 -0.317925
v 0.068089 1.236575 -0.339971
v 0.038582 1.230521 -0.313287
v 0.068089 1.240667 -0.337784
v 0.038582 1.239935 -0.310431
v 0.068089 1.245108 -0.336436
v 0.038582 1.249727 -0.309467
v 0.068089 1.249727 -0.335982
v 0.038582 1.259518 -0.310431
v 0.068089 1.254345 -0.336436
v 0.038582 1.268932 -0.313287
v 0.068089 1.258786 -0.337784
v 0.038582 1.277609 -0.317925
v 0.068089 1.262879 -0.339971
v 0.038582 1.285215 -0.324166
v 0.068089 1.266466 -0.342915
v 0.038582 1.291456 -0.331772
v 0.068089 1.269410 -0.346502
v 0.038582 1.296094 -0.340448
v 0.068089 1.271597 -0.350595
v 0.038582 1.298950 -0.349863
v 0.068089 1.272945 -0.355036
v 0.038582 1.299914 -0.359654
v 0.068089 1.273399 -0.359654
v 0.038582 1.298950 -0.369446
v 0.068089 1.272945 -0.364273
v 0.038582 1.296094 -0.378860
v 0.068089 1.271597 -0.368714
v 0.038582 1.291456 -0.387537
v 0.068089 1.269410 -0.372806
v 0.038582 1.285214 -0.395142
v 0.068089 1.266466 -0.376394
v 0.038582 1.277609 -0.401384
v 0.068089 1.262878 -0.379338
v 0.038582 1.268932 -0.406022
v 0.068089 1.258786 -0.381525
v 0.038582 1.259518 -0.408878
v 0.068089 1.254345 -0.382872
v 0.068089 1.239935 -0.408878
v 0.068089 1.249727 -0.409842
v 0.068089 1.230521 -0.406022
v 0.068089 1.221844 -0.401384
v 0.068089 1.214239 -0.395142
v 0.068089 1.207997 -0.387537
v 0.068089 1.203359 -0.378860
v 0.068089 1.200503 -0.369446
v 0.068089 1.199539 -0.359654
v 0.068089 1.200503 -0.349863
v 0.068089 1.203359 -0.340448
v 0.068089 1.207997 -0.331772
v 0.068089 1.214239 -0.324166
v 0.068089 1.221844 -0.317925
v 0.068089 1.230521 -0.313287
v 0.068089 1.239935 -0.310431
v 0.068089 1.249727 -0.309467
v 0.068089 1.259518 -0.310431
v 0.068089 1.268932 -0.313287
v 0.068089 1.277609 -0.317925
v 0.068089 1.285215 -0.324166
v 0.068089 1.291456 -0.331772
v 0.068089 1.296094 -0.340448
v 0.068089 1.298950 -0.349863
v 0.068089 1.299914 -0.359654
v 0.068089 1.298950 -0.369446
v 0.068089 1.296094 -0.378860
v 0.068089 1.291456 -0.387537
v 0.068089 1.285214 -0.395142
v 0.068089 1.277609 -0.401384
v 0.068089 1.268932 -0.406022
v 0.068089 1.259518 -0.408878
v 0.097052 1.245108 -0.382872
v 0.097052 1.249727 -0.383327
v 0.097052 1.240667 -0.381525
v 0.097052 1.236575 -0.379338
v 0.097052 1.232987 -0.376394
v 0.097052 1.230043 -0.372806
v 0.097052 1.227856 -0.368714
v 0.097052 1.226508 -0.364273
v 0.097052 1.226054 -0.359654
v 0.097052 1.226508 -0.355036
v 0.097052 1.227856 -0.350595
v 0.097052 1.230043 -0.346502
v 0.097052 1.232987 -0.342915
v 0.097052 1.236575 -0.339971
v 0.097052 1.240667 -0.337784
v 0.097052 1.245108 -0.336436
v 0.097052 1.249727 -0.335982
v 0.097052 1.254345 -0.336436
v 0.097052 1.258786 -0.337784
v 0.097052 1.262879 -0.339971
v 0.097052 1.266466 -0.342915
v 0.097052 1.269410 -0.346502
v 0.097052 1.271597 -0.350595
v 0.097052 1.272945 -0.355036
v 0.097052 1.273399 -0.359654
v 0.097052 1.272945 -0.364273
v 0.097052 1.271597 -0.368714
v 0.097052 1.269410 -0.372806
v 0.097052 1.266466 -0.376394
v 0.097052 1.262878 -0.379338
v 0.097052 1.258786 -0.381525
v 0.097052 1.254345 -0.382872
v 0.098774 1.242860 -0.394174
v 0.098774 1.249727 -0.394851
v 0.098774 1.236257 -0.392172
v 0.098774 1.230173 -0.388919
v 0.098774 1.224839 -0.384542
v 0.098774 1.220462 -0.379208
v 0.098774 1.217209 -0.373123
v 0.098774 1.215207 -0.366521
v 0.098774 1.214530 -0.359654
v 0.098774 1.215207 -0.352788
v 0.098774 1.217209 -0.346185
v 0.098774 1.220462 -0.340100
v 0.098774 1.224839 -0.334767
v 0.098774 1.230173 -0.330390
v 0.098774 1.236258 -0.327137
v 0.098774 1.242860 -0.325134
v 0.098774 1.249727 -0.324458
v 0.098774 1.256593 -0.325134
v 0.098774 1.263196 -0.327137
v 0.098774 1.269281 -0.330390
v 0.098774 1.274614 -0.334767
v 0.098774 1.278991 -0.340100
v 0.098774 1.282244 -0.346185
v 0.098774 1.284247 -0.352788
v 0.098774 1.284923 -0.359654
v 0.098774 1.284247 -0.366521
v 0.098774 1.282244 -0.373123
v 0.098774 1.278991 -0.379208
v 0.098774 1.274614 -0.384542
v 0.098774 1.269281 -0.388919
v 0.098774 1.263196 -0.392172
v 0.098774 1.256593 -0.394174
v 0.139341 1.242860 -0.394174
v 0.139341 1.249727 -0.394851
v 0.139341 1.236257 -0.392172
v 0.139341 1.230173 -0.388919
v 0.139341 1.224839 -0.384542
v 0.139341 1.220462 -0.379208
v 0.139341 1.217209 -0.373123
v 0.139341 1.215207 -0.366521
v 0.139341 1.214530 -0.359654
v 0.139341 1.215207 -0.352788
v 0.139341 1.217209 -0.346185
v 0.139341 1.220462 -0.340100
v 0.139341 1.224839 -0.334767
v 0.139341 1.230173 -0.330390
v 0.139341 1.236258 -0.327137
v 0.139341 1.242860 -0.325134
v 0.139341 1.249727 -0.324458
v 0.139341 1.256593 -0.325134
v 0.139341 1.263196 -0.327137
v 0.139341 1.269281 -0.330390
v 0.139341 1.274614 -0.334767
v 0.139341 1.278991 -0.340100
v 0.139341 1.282244 -0.346185
v 0.139341 1.284247 -0.352788
v 0.139341 1.284923 -0.359654
v 0.139341 1.284247 -0.366521
v 0.139341 1.282244 -0.373123
v 0.139341 1.278991 -0.379208
v 0.139341 1.274614 -0.384542
v 0.139341 1.269281 -0.388919
v 0.139341 1.263196 -0.392172
v 0.139341 1.256593 -0.394174
vn 0.0000 -0.0980 -0.9952
vn 0.0000 -0.2903 -0.9569
vn 0.0000 -0.4714 -0.8819
vn 0.0000 -0.6344 -0.7730
vn 0.0000 -0.7730 -0.6344
vn 0.0000 -0.8819 -0.4714
vn 0.0000 -0.9569 -0.2903
vn 0.0000 -0.9952 -0.0980
vn 0.0000 -0.9952 0.0980
vn 0.0000 -0.9569 0.2903
vn 0.0000 -0.8819 0.4714
vn 0.0000 -0.7730 0.6344
vn 0.0000 -0.6344 0.7730
vn 0.0000 -0.4714 0.8819
vn 0.0000 -0.2903 0.9569
vn 0.0000 -0.0980 0.9952
vn 0.0000 0.0980 0.9952
vn 0.0000 0.2903 0.9569
vn 0.0000 0.4714 0.8819
vn 0.0000 0.6344 0.7730
vn 0.0000 0.7730 0.6344
vn 0.0000 0.8819 0.4714
vn 0.0000 0.9569 0.2903
vn 0.0000 0.9952 0.0980
vn 0.0000 0.9952 -0.0980
vn 0.0000 0.9569 -0.2903
vn 0.0000 0.8819 -0.4714
vn 0.0000 0.7730 -0.6344
vn 0.0000 0.6344 -0.7730
vn 0.0000 0.4714 -0.8819
vn 0.0000 0.2903 -0.9569
vn 0.0000 0.0980 -0.9952
vn -1.0000 0.0000 0.0000
vn 1.0000 -0.0000 0.0000
vn -0.9889 -0.0700 -0.1309
vn -0.9889 0.0700 -0.1309
vn -0.9889 0.0146 0.1478
vn -0.9889 -0.0942 -0.1148
vn -0.9889 0.0431 -0.1421
vn -0.9889 0.0431 0.1421
vn -0.9889 -0.1148 -0.0942
vn -0.9889 0.0146 -0.1478
vn -0.9889 0.0700 0.1309
vn -0.9889 -0.1309 -0.0700
vn -0.9889 0.0942 0.1148
vn -0.9889 -0.1421 -0.0431
vn -0.9889 0.1148 0.0942
vn -0.9889 -0.1478 -0.0146
vn -0.9889 0.1309 0.0700
vn -0.9889 -0.1478 0.0146
vn -0.9889 0.1421 0.0431
vn -0.9889 -0.1421 0.0431
vn -0.9889 0.1478 0.0146
vn -0.9889 -0.1309 0.0700
vn -0.9889 0.1478 -0.0146
vn -0.9889 -0.1148 0.0942
vn -0.9889 0.1421 -0.0431
vn -0.9889 -0.0942 0.1148
vn -0.9889 0.1309 -0.0700
vn -0.9889 -0.0700 0.1309
vn -0.9889 -0.0146 -0.1478
vn -0.9889 0.1148 -0.0942
vn -0.9889 -0.0431 0.1421
vn -0.9889 -0.0431 -0.1421
vn -0.9889 0.0942 -0.1148
vn -0.9889 -0.0146 0.1478
usemtl None
s off
f 41//13 106//13 105//13 43//13
f 43//14 105//14 107//14 45//14
f 45//15 107//15 108//15 47//15
f 47//16 108//16 109//16 49//16
f 49//17 109//17 110//17 51//17
f 51//18 110//18 111//18 53//18
f 53//19 111//19 112//19 55//19
f 55//20 112//20 113//20 57//20
f 57//21 113//21 114//21 59//21
f 59//22 114//22 115//22 61//22
f 61//23 115//23 116//23 63//23
f 63//24 116//24 117//24 65//24
f 65//25 117//25 118//25 67//25
f 67//26 118//26 119//26 69//26
f 69//27 119//27 120//27 71//27
f 71//28 120//28 121//28 73//28
f 73//29 121//29 122//29 75//29
f 75//30 122//30 123//30 77//30
f 77//31 123//31 124//31 79//31
f 79//32 124//32 125//32 81//32
f 81//33 125//33 126//33 83//33
f 83//34 126//34 127//34 85//34
f 85//35 127//35 128//35 87//35
f 87//36 128//36 129//36 89//36
f 89//37 129//37 130//37 91//37
f 91//38 130//38 131//38 93//38
f 93//39 131//39 132//39 95//39
f 95//40 132//40 133//40 97//40
f 97//41 133//41 134//41 99//41
f 99//42 134//42 135//42 101//42
f 96//39 94//39 163//39 164//39
f 101//43 135//43 136//43 103//43
f 103//44 136//44 106//44 41//44
f 41//45 43//45 45//45 47//45 49//45 51//45 53//45 55//45 57//45 59//45 61//45 63//45 65//45 67//45 69//45 71//45 73//45 75//45 77//45 79//45 81//45 83//45 85//45 87//45 89//45 91//45 93//45 95//45 97//45 99//45 101//45 103//45
f 42//46 44//46 105//46 106//46
f 44//46 46//46 107//46 105//46
f 46//46 48//46 108//46 107//46
f 48//46 50//46 109//46 108//46
f 50//46 52//46 110//46 109//46
f 52//46 54//46 111//46 110//46
f 54//46 56//46 112//46 111//46
f 56//46 58//46 113//46 112//46
f 58//46 60//46 114//46 113//46
f 60//46 62//46 115//46 114//46
f 62//46 64//46 116//46 115//46
f 64//46 66//46 117//46 116//46
f 66//46 68//46 118//46 117//46
f 68//46 70//46 119//46 118//46
f 70//46 72//46 120//46 119//46
f 72//46 74//46 121//46 120//46
f 74//46 76//46 122//46 121//46
f 76//46 78//46 123//46 122//46
f 78//46 80//46 124//46 123//46
f 80//46 82//46 125//46 124//46
f 82//46 84//46 126//46 125//46
f 84//46 86//46 127//46 126//46
f 86//46 88//46 128//46 127//46
f 88//46 90//46 129//46 128//46
f 90//46 92//46 130//46 129//46
f 92//46 94//46 131//46 130//46
f 94//46 96//46 132//46 131//46
f 96//46 98//46 133//46 132//46
f 98//46 100//46 134//46 133//46
f 100//46 102//46 135//46 134//46
f 102//46 104//46 136//46 135//46
f 104//46 42//46 106//46 136//46
f 140//47 139//47 171//47 172//47
f 70//26 68//26 150//26 151//26
f 44//13 42//13 138//13 137//13
f 98//40 96//40 164//40 165//40
f 72//27 70//27 151//27 152//27
f 46//14 44//14 137//14 139//14
f 100//41 98//41 165//41 166//41
f 74//28 72//28 152//28 153//28
f 48//15 46//15 139//15 140//15
f 102//42 100//42 166//42 167//42
f 76//29 74//29 153//29 154//29
f 50//16 48//16 140//16 141//16
f 104//43 102//43 167//43 168//43
f 78//30 76//30 154//30 155//30
f 52//17 50//17 141//17 142//17
f 42//44 104//44 168//44 138//44
f 80//31 78//31 155//31 156//31
f 54//18 52//18 142//18 143//18
f 82//32 80//32 156//32 157//32
f 56//19 54//19 143//19 144//19
f 84//33 82//33 157//33 158//33
f 58//20 56//20 144//20 145//20
f 86//34 84//34 158//34 159//34
f 60//21 58//21 145//21 146//21
f 88//35 86//35 159//35 160//35
f 62//22 60//22 146//22 147//22
f 90//36 88//36 160//36 161//36
f 64//23 62//23 147//23 148//23
f 92//37 90//37 161//37 162//37
f 66//24 64//24 148//24 149//24
f 94//38 92//38 162//38 163//38
f 68//25 66//25 149//25 150//25
f 175//18 174//18 206//18 207//18
f 167//48 166//48 198//48 199//48
f 154//49 153//49 185//49 186//49
f 141//50 140//50 172//50 173//50
f 168//51 167//51 199//51 200//51
f 155//52 154//52 186//52 187//52
f 142//53 141//53 173//53 174//53
f 138//54 168//54 200//54 170//54
f 156//55 155//55 187//55 188//55
f 143//56 142//56 174//56 175//56
f 157//57 156//57 188//57 189//57
f 144//58 143//58 175//58 176//58
f 158//59 157//59 189//59 190//59
f 145//60 144//60 176//60 177//60
f 159//61 158//61 190//61 191//61
f 146//62 145//62 177//62 178//62
f 160//63 159//63 191//63 192//63
f 147//64 146//64 178//64 179//64
f 161//65 160//65 192//65 193//65
f 148//66 147//66 179//66 180//66
f 162//67 161//67 193//67 194//67
f 149//68 148//68 180//68 181//68
f 163//69 162//69 194//69 195//69
f 150//70 149//70 181//70 182//70
f 164//71 163//71 195//71 196//71
f 151//72 150//72 182//72 183//72
f 137//73 138//73 170//73 169//73
f 165//74 164//74 196//74 197//74
f 152//75 151//75 183//75 184//75
f 139//76 137//76 169//76 171//76
f 166//77 165//77 197//77 198//77
f 153//78 152//78 184//78 185//78
f 201//46 202//46 232//46 231//46 230//46 229//46 228//46 227//46 226//46 225//46 224//46 223//46 222//46 221//46 220//46 219//46 218//46 217//46 216//46 215//46 214//46 213//46 212//46 211//46 210//46 209//46 208//46 207//46 206//46 205//46 204//46 203//46
f 189//32 188//32 220//32 221//32
f 176//19 175//19 207//19 208//19
f 190//33 189//33 221//33 222//33
f 177//20 176//20 208//20 209//20
f 191//34 190//34 222//34 223//34
f 178//21 177//21 209//21 210//21
f 192//35 191//35 223//35 224//35
f 179//22 178//22 210//22 211//22
f 193//36 192//36 224//36 225//36
f 180//23 179//23 211//23 212//23
f 194//37 193//37 225//37 226//37
f 181//24 180//24 212//24 213//24
f 195//38 194//38 226//38 227//38
f 182//25 181//25 213//25 214//25
f 196//39 195//39 227//39 228//39
f 183//26 182//26 214//26 215//26
f 169//13 170//13 202//13 201//13
f 197//40 196//40 228//40 229//40
f 184//27 183//27 215//27 216//27
f 171//14 169//14 201//14 203//14
f 198//41 197//41 229//41 230//41
f 185//28 184//28 216//28 217//28
f 172//15 171//15 203//15 204//15
f 199//42 198//42 230//42 231//42
f 186//29 185//29 217//29 218//29
f 173//16 172//16 204//16 205//16
f 200//43 199//43 231//43 232//43
f 187//30 186//30 218//30 219//30
f 174//17 173//17 205//17 206//17
f 170//44 200//44 232//44 202//44
f 188//31 187//31 219//31 220//31
